<?xml version="1.0" ?><svg viewBox="0 0 500 500" xmlns="http://www.w3.org/2000/svg"><defs><style>.cls-1{fill:none;}.cls-2{fill:#ff9e9d;}.cls-3{fill:#fff;stroke:#62626a;stroke-miterlimit:10;stroke-width:9px;}.cls-4{fill:#62626a;}</style></defs><title/><g data-name="Layer 2" id="Layer_2"><g data-name="Layer 1" id="Layer_1-2"><rect class="cls-1" height="500" rx="250" ry="250" width="500"/><path class="cls-2" d="M310,250H190L162,127.54c-5.63-24.62,12.6-49.23,46.24-60.81A129,129,0,0,1,250,60h0a129,129,0,0,1,41.8,6.73c33.64,11.58,51.87,36.19,46.24,60.81Z"/><path class="cls-3" d="M400,333.23V470H100V333.23a52.75,52.75,0,0,1,42.39-51.72l20.13-4,33.3-6.66a276.76,276.76,0,0,1,108.36,0l36.18,7.23,17.25,3.45A52.75,52.75,0,0,1,400,333.23Z"/><path class="cls-3" d="M330,350v31.42A47.9,47.9,0,0,1,330,440v30"/><circle class="cls-3" cx="315" cy="175" r="15"/><circle class="cls-3" cx="185" cy="175" r="15"/><path class="cls-3" d="M304.18,270.83q-12-2.4-24.18-3.7V230H220v37.13q-12.15,1.32-24.18,3.7L170,276v4l30.11,33.88a66.75,66.75,0,0,0,99.78,0L330,280v-4Z"/><path class="cls-3" d="M310,130v60a60,60,0,0,1-60,60h0a60,60,0,0,1-60-60V130"/><path class="cls-3" d="M320,130s-50,0-70-20c-20,20-70,20-70,20"/><circle class="cls-4" cx="275" cy="165" r="5"/><circle class="cls-4" cx="225" cy="165" r="5"/><path class="cls-3" d="M270,200h0a20,20,0,0,1-40,0"/><path class="cls-3" d="M170,350v31.42A47.9,47.9,0,0,0,170,440v30"/><path class="cls-4" d="M358.49,277.1l-32.89-6.58c-28.14,45.73-86.94,134.54-158.12,204h55.84Q269.17,424.92,315.38,359c23.19-33.13,40.92-61.59,51.6-79.46A55.53,55.53,0,0,0,358.49,277.1Z"/><path class="cls-4" d="M250,348a82.08,82.08,0,0,1,79,104H171a82.08,82.08,0,0,1,79-104m0-18a100,100,0,0,0-91.67,140H341.67A100,100,0,0,0,250,330Z"/><path class="cls-4" d="M340,440l-79,8.77a99.4,99.4,0,0,1-22.08,0L160,440V420l79-8.77a99.4,99.4,0,0,1,22.08,0L340,420Z"/></g></g></svg>